<svg width="18" height="17" viewBox="0 0 18 17" fill="none" xmlns="http://www.w3.org/2000/svg">
<path d="M4.07031 2.3749C4.07008 2.83903 3.88548 3.28405 3.55713 3.61208C3.22878 3.9401 2.78357 4.12426 2.31944 4.12402C1.85531 4.12379 1.41028 3.93919 1.08226 3.61084C0.754232 3.28249 0.570081 2.83728 0.570313 2.37315C0.570545 1.90902 0.755142 1.46399 1.08349 1.13597C1.41185 0.807943 1.85706 0.623792 2.32119 0.624024C2.78532 0.624256 3.23034 0.808853 3.55837 1.13721C3.88639 1.46556 4.07054 1.91077 4.07031 2.3749ZM4.12281 5.4199H0.622813V16.3749H4.12281V5.4199ZM9.65281 5.4199H6.17031V16.3749H9.61781V10.6261C9.61781 7.42365 13.7916 7.12615 13.7916 10.6261V16.3749H17.2478V9.43615C17.2478 4.0374 11.0703 4.23865 9.61781 6.8899L9.65281 5.4199Z" fill="white"/>
</svg>
