<svg width="77" height="77" viewBox="0 0 77 77" fill="none" xmlns="http://www.w3.org/2000/svg">
<path d="M66.1723 13.2344H43.7941L38.741 23.3406H10.5879V63.7656H71.2254V13.2344H66.1723ZM66.1723 23.3406H46.441L49.0879 18.2875H66.1723V23.3406Z" fill="#5C4300"/>
<path d="M57.3314 49.2177L60.9408 45.6084C62.2411 46.1227 63.6314 46.3707 65.0293 46.3377C66.4272 46.3046 67.8042 45.9911 69.0787 45.4159C69.2249 45.3494 69.3528 45.2485 69.4514 45.1218C69.55 44.9951 69.6165 44.8464 69.6451 44.6884C69.6737 44.5304 69.6637 44.3678 69.6157 44.2146C69.5678 44.0614 69.4834 43.922 69.3699 43.8085L62.9235 37.3621C62.7371 37.176 62.5891 36.9549 62.4882 36.7115C62.3873 36.4681 62.3353 36.2072 62.3353 35.9437C62.3353 35.6802 62.3873 35.4193 62.4882 35.1759C62.5891 34.9325 62.7371 34.7113 62.9235 34.5252L69.3627 28.0861C69.4775 27.9728 69.5632 27.8333 69.6124 27.6797C69.6616 27.5261 69.6729 27.3628 69.6452 27.2039C69.6175 27.0449 69.5517 26.8951 69.4535 26.7671C69.3553 26.6391 69.2275 26.5369 69.0811 26.4691C67.2113 25.6226 65.1327 25.3487 63.1074 25.6817C61.0821 26.0148 59.2007 26.94 57.7004 28.3407C56.2001 29.7414 55.1481 31.5549 54.6769 33.5526C54.2057 35.5503 54.3365 37.6428 55.0527 39.5663L51.3615 43.2575L57.3314 49.2177ZM50.4159 44.1935L45.4133 39.1909L39.4434 45.1608L44.446 50.1634L50.4159 56.1333L68.7034 74.4208C68.9542 74.6715 69.2944 74.8123 69.649 74.8123C70.0037 74.8123 70.3438 74.6715 70.5947 74.4208L74.6733 70.3422C74.9239 70.0913 75.0648 69.7512 75.0648 69.3966C75.0648 69.0419 74.9239 68.7018 74.6733 68.4509L56.3858 50.1634L50.4159 44.1935Z" fill="#D08B00"/>
<path d="M72.0824 31.4451L66.7357 36.7917C66.5307 36.997 66.4156 37.2753 66.4156 37.5654C66.4156 37.8554 66.5307 38.1337 66.7357 38.339L70.8576 42.4609C70.966 42.5699 71.0962 42.6548 71.2397 42.71C71.3832 42.7653 71.5367 42.7896 71.6903 42.7814C71.8438 42.7732 71.9939 42.7327 72.1307 42.6626C72.2675 42.5924 72.388 42.4942 72.4842 42.3742C73.6495 40.896 74.3927 39.1297 74.6346 37.2629C74.8765 35.3962 74.6082 33.4988 73.8582 31.7723C73.7863 31.6095 73.6757 31.4667 73.536 31.3563C73.3963 31.246 73.2318 31.1714 73.0568 31.1392C72.8817 31.1069 72.7015 31.1179 72.5316 31.1712C72.3618 31.2245 72.2076 31.3185 72.0824 31.4451ZM31.1376 56.7877L37.5839 63.234C37.7704 63.4202 37.9184 63.6413 38.0193 63.8847C38.1202 64.1281 38.1722 64.389 38.1722 64.6525C38.1722 64.916 38.1202 65.1769 38.0193 65.4203C37.9184 65.6637 37.7704 65.8848 37.5839 66.071L31.1448 72.5101C31.0304 72.6242 30.9453 72.7645 30.897 72.9187C30.8487 73.0729 30.8385 73.2366 30.8674 73.3956C30.8962 73.5547 30.9633 73.7043 31.0627 73.8317C31.1622 73.9591 31.2911 74.0605 31.4384 74.1271C33.305 74.9715 35.3794 75.2454 37.4012 74.9146C39.423 74.5838 41.3019 73.6629 42.802 72.2677C44.3021 70.8725 45.3565 69.0651 45.8328 67.0725C46.309 65.08 46.1859 62.9912 45.4789 61.0684L49.466 57.0812L43.4961 51.1113L39.6076 55.0022C38.3022 54.4796 36.9046 54.226 35.4988 54.2566C34.093 54.2872 32.7078 54.6013 31.4264 55.1803C31.2804 55.247 31.1527 55.3481 31.0543 55.4749C30.956 55.6017 30.8897 55.7505 30.8614 55.9084C30.833 56.0664 30.8433 56.2289 30.8914 56.382C30.9395 56.5351 31.024 56.6743 31.1376 56.7877Z" fill="#D08B00"/>
<path d="M28.0343 58.3159C26.869 59.7942 26.1258 61.5605 25.8839 63.4273C25.642 65.294 25.9103 67.1914 26.6604 68.9179C26.7324 69.0803 26.8429 69.2226 26.9824 69.3327C27.1219 69.4427 27.286 69.517 27.4607 69.5493C27.6354 69.5815 27.8154 69.5707 27.9849 69.5177C28.1545 69.4647 28.3085 69.3711 28.4338 69.2451L33.7804 63.8984C33.9854 63.6932 34.1006 63.4149 34.1006 63.1248C34.1006 62.8347 33.9854 62.5565 33.7804 62.3512L29.6609 58.2317C29.5527 58.1226 29.4226 58.0375 29.2792 57.982C29.1358 57.9266 28.9823 57.9021 28.8288 57.91C28.6753 57.918 28.5251 57.9582 28.3882 58.0282C28.2513 58.0981 28.1307 58.1962 28.0343 58.3159ZM31.0951 49.2997C31.2471 49.4521 31.4277 49.5731 31.6265 49.6556C31.8253 49.7381 32.0384 49.7806 32.2537 49.7806C32.4689 49.7806 32.6821 49.7381 32.8809 49.6556C33.0797 49.5731 33.2603 49.4521 33.4123 49.2997L33.7203 48.9917C33.8727 48.8397 33.9936 48.6591 34.0762 48.4603C34.1587 48.2615 34.2011 48.0484 34.2011 47.8331C34.2011 47.6179 34.1587 47.4047 34.0762 47.2059C33.9936 47.0071 33.8727 46.8265 33.7203 46.6745L33.1019 46.0561L34.3194 44.8385L28.6022 39.1213L27.3846 40.3388L26.7662 39.7204C26.6142 39.568 26.4337 39.4471 26.2348 39.3646C26.036 39.2821 25.8229 39.2396 25.6076 39.2396C25.3924 39.2396 25.1792 39.2821 24.9804 39.3646C24.7816 39.4471 24.601 39.568 24.449 39.7204L24.141 40.0284C23.9886 40.1804 23.8677 40.361 23.7851 40.5598C23.7026 40.7586 23.6602 40.9718 23.6602 41.187C23.6602 41.4023 23.7026 41.6154 23.7851 41.8143C23.8677 42.0131 23.9886 42.1937 24.141 42.3457L31.0951 49.2997ZM39.9429 28.1247L45.5903 33.7722C52.0992 29.4409 55.7399 33.072 50.7349 28.0694C47.2699 24.6068 42.8977 26.243 39.9429 28.1247ZM38.2031 28.2811C38.0511 28.1287 37.8706 28.0078 37.6717 27.9253C37.4729 27.8427 37.2598 27.8003 37.0445 27.8003C36.8293 27.8003 36.6161 27.8427 36.4173 27.9253C36.2185 28.0078 36.0379 28.1287 35.8859 28.2811L28.9319 35.2352C28.7794 35.3872 28.6585 35.5678 28.576 35.7666C28.4935 35.9654 28.451 36.1785 28.451 36.3938C28.451 36.6091 28.4935 36.8222 28.576 37.021C28.6585 37.2198 28.7794 37.4004 28.9319 37.5524L29.5503 38.1708L35.2675 43.8881L35.8859 44.5065C36.1617 44.7828 36.5272 44.9514 36.9164 44.9818C37.3056 45.0123 37.6928 44.9026 38.0082 44.6725C38.0761 44.6207 38.1412 44.5652 38.2031 44.5065L38.4991 44.2153L44.469 38.2454L44.9503 37.7642L45.1692 37.5452C45.3216 37.3932 45.4426 37.2126 45.5251 37.0138C45.6076 36.815 45.6501 36.6018 45.6501 36.3866C45.6501 36.1713 45.6076 35.9582 45.5251 35.7594C45.4426 35.5605 45.3216 35.38 45.1692 35.228L44.4955 34.5542L38.8264 28.8851L38.2031 28.2811Z" fill="#D08B00"/>
</svg>
