<svg width="77" height="77" viewBox="0 0 77 77" fill="none" xmlns="http://www.w3.org/2000/svg">
<path d="M47.606 57.0283H29.1777C29.6073 57.0283 29.9538 61.2525 29.9538 66.456C29.9538 71.6631 29.6085 75.8873 29.1777 75.8873H47.606C47.1777 75.8873 46.83 71.6631 46.83 66.456C46.8324 61.2525 47.1777 57.0283 47.606 57.0283Z" fill="#BFBEBE"/>
<path d="M35.6301 57.0283H29.1777C29.6073 57.0283 29.9537 61.2525 29.9537 66.456C29.9537 71.6631 29.6085 75.8873 29.1777 75.8873H35.6301C36.0596 75.8873 36.4061 71.6631 36.4061 66.456C36.4061 61.2525 36.0596 57.0283 35.6301 57.0283Z" fill="#AEAEAE"/>
<path d="M76.7401 56.9202C76.7401 61.7893 73.0705 65.7343 68.5516 65.7343H8.23895C3.7152 65.7343 0.046875 61.7893 0.046875 56.9202V12.2602C0.046875 7.3996 3.7152 3.45215 8.23895 3.45215H68.5516C73.0705 3.45215 76.7401 7.39599 76.7401 12.2602V56.9202Z" fill="#D1D2D2"/>
<path d="M15.5573 56.9202V12.2602C15.5573 7.3996 19.2256 3.45215 23.7481 3.45215H8.23505C3.7113 3.45215 0.0429688 7.39599 0.0429688 12.2602V56.9202C0.0429688 61.7893 3.7113 65.7343 8.23505 65.7343H23.7481C19.2256 65.7343 15.5573 61.7881 15.5573 56.919" fill="#C6C5C5"/>
<path d="M76.7401 44.4442C76.7401 49.3049 73.0705 53.2511 68.5516 53.2511H8.23895C3.7152 53.2511 0.046875 49.3085 0.046875 44.4442V12.227C0.046875 7.35791 3.7152 3.41406 8.23895 3.41406H68.5516C73.0705 3.41406 76.7401 7.35791 76.7401 12.227V44.4442Z" fill="#243438"/>
<path d="M0.0429688 42.1689H76.741V55.8449H0.0429688V42.1689Z" fill="#243438"/>
<path d="M70.683 7.5127H6.09803C5.56505 7.5127 5.12109 7.80746 5.12109 8.16238V50.1406C5.12109 50.4967 5.56505 50.7903 6.09803 50.7903H70.683C70.9729 50.7903 71.1931 50.7289 71.3531 50.6207L71.3772 50.5966C71.3772 50.5966 71.3964 50.5822 71.4013 50.5689C71.4804 50.5284 71.5472 50.4671 71.5944 50.3917C71.6417 50.3163 71.6676 50.2296 71.6695 50.1406V8.1708C71.6647 7.81588 71.216 7.52112 70.683 7.52112" fill="#58C5E8"/>
<path d="M39.3392 35.5636C50.1384 42.034 60.6886 46.4398 71.6647 49.1047V8.16238C71.6647 7.80746 71.216 7.5127 70.683 7.5127H11.417C17.5049 18.9845 27.9817 28.7599 39.3416 35.5636M39.4258 42.4346C26.396 35.3374 13.3505 25.5066 5.12109 13.3671V50.1394C5.12109 50.4955 5.56505 50.7891 6.09803 50.7891H58.8105C52.3714 48.7137 45.9503 45.9934 39.4282 42.4394" fill="#28A6DE"/>
<path d="M52.6014 75.4681C52.6014 76.3127 52.1947 76.9997 51.6955 76.9997H25.0944C24.5902 76.9997 24.1836 76.3127 24.1836 75.4681C24.1836 74.6223 24.5902 73.9365 25.0944 73.9365H51.6955C52.1947 73.9329 52.6014 74.6211 52.6014 75.4681Z" fill="#D1D2D2"/>
<path d="M33.6113 75.4681C33.6113 74.6223 34.018 73.9365 34.5173 73.9365H24.7419C24.2414 73.9365 23.8359 74.6223 23.8359 75.4681C23.8359 76.3127 24.2426 76.9997 24.7419 76.9997H34.5173C34.018 76.9997 33.6113 76.3127 33.6113 75.4681Z" fill="#C6C5C5"/>
<path d="M41.3036 58.4903C41.1857 58.3772 41.0136 58.3447 40.779 58.4121L39.4279 58.7574C39.006 58.8705 38.7947 59.1504 38.7939 59.5972L38.7891 61.0421C38.7891 61.2515 38.836 61.4067 38.9298 61.4957C38.9697 61.5335 39.0168 61.5629 39.0682 61.5822C39.1197 61.6014 39.1745 61.61 39.2294 61.6076C39.3016 61.6076 39.369 61.592 39.4556 61.5751L40.8055 61.231C41.2274 61.1187 41.4407 60.8368 41.4456 60.3852V58.9451C41.4424 58.7317 41.395 58.5801 41.3036 58.4903ZM40.5865 60.135C40.5865 60.2946 40.5107 60.3949 40.3591 60.4358L39.8803 60.5609C39.8541 60.5663 39.8276 60.5695 39.8009 60.5705C39.7615 60.5711 39.7232 60.5579 39.6926 60.5332C39.6613 60.5031 39.6409 60.4466 39.6469 60.3648V59.851C39.6469 59.6914 39.7219 59.5916 39.8719 59.5515L40.3567 59.4263C40.4409 59.4071 40.5015 59.4163 40.5384 59.454C40.5737 59.4861 40.5909 59.5406 40.5901 59.6176V60.1362H40.5865V60.135ZM37.995 59.5912C37.995 59.1444 37.7832 58.8645 37.3597 58.7514L36.0098 58.4061C35.7764 58.3387 35.6032 58.3748 35.4913 58.4843C35.3934 58.5741 35.3449 58.7253 35.3457 58.9379L35.3505 60.3756C35.3545 60.8288 35.5663 61.1107 35.9858 61.2214L37.3405 61.5667C37.4207 61.59 37.4937 61.6008 37.5595 61.5992C37.6145 61.6022 37.6696 61.5937 37.7212 61.5742C37.7727 61.5547 37.8197 61.5247 37.859 61.4861C37.9529 61.3971 37.9998 61.2459 37.9998 61.0325L37.995 59.5912ZM37.0975 60.5272C37.0734 60.5521 37.0377 60.5645 36.9904 60.5645C36.9904 60.5645 36.9387 60.5597 36.911 60.5549L36.4297 60.4298C36.2805 60.3876 36.2011 60.289 36.2011 60.129V59.6104C36.2027 59.5358 36.2196 59.4813 36.2517 59.4468C36.2886 59.4091 36.3507 59.3999 36.4381 59.4191L36.9194 59.5443C37.0686 59.5852 37.148 59.6838 37.148 59.8438V60.3624C37.148 60.437 37.148 60.4935 37.0975 60.5272ZM38.9443 63.2956C38.9683 63.2956 38.9912 63.2908 39.0237 63.28L39.5049 63.156C39.6557 63.1199 39.7319 63.0189 39.7335 62.8528V62.3403C39.7352 62.2815 39.7188 62.2235 39.6866 62.1743C39.6445 62.1334 39.5783 62.1286 39.5001 62.149L39.014 62.2729C38.864 62.3106 38.7891 62.4117 38.7891 62.5761L38.7842 63.0923C38.785 63.1661 38.8023 63.2186 38.836 63.2499C38.86 63.2804 38.8961 63.2956 38.9443 63.2956ZM37.8458 63.2956C37.817 63.2955 37.7885 63.2902 37.7616 63.28L37.2803 63.156C37.1312 63.1199 37.0562 63.0189 37.0554 62.8528L37.0505 62.3403C37.0505 62.2645 37.0698 62.214 37.1023 62.1743C37.1396 62.1334 37.2045 62.1286 37.2839 62.149L37.7748 62.2729C37.9204 62.3102 37.9998 62.4125 37.9998 62.5761V63.0923C37.9998 63.1669 37.9806 63.2174 37.9529 63.2499C37.9397 63.2652 37.9232 63.2772 37.9046 63.2851C37.8861 63.2931 37.866 63.2966 37.8458 63.2956Z" fill="#243438"/>
</svg>
