<svg width="77" height="77" viewBox="0 0 77 77" fill="none" xmlns="http://www.w3.org/2000/svg">
<g clip-path="url(#clip0_183_5716)">
<path d="M39.5943 67.026L31.5454 67.3509C28.8203 67.2907 27.93 66.4786 26.9615 64.0242L24.9102 58.8508L28.688 58.0627L30.4626 62.5444C30.5555 62.7817 30.7216 62.9832 30.937 63.1195C31.1523 63.2558 31.4055 63.3199 31.6597 63.3023L37.9761 62.8452C39.7387 62.6587 40.0274 61.642 39.6484 60.6855L37.7475 55.8911L42.548 54.2188L44.6354 59.4945C45.2911 61.1548 45.7362 62.9955 44.9783 64.4934C44.106 66.2199 42.7104 66.8937 39.5943 67.026Z" fill="#82AEC0"/>
<path d="M25.043 59.1814L26.1378 61.9426C26.1378 61.9426 26.5649 61.305 27.9545 61.1846C29.5366 61.0463 30.1562 61.7621 30.1562 61.7621L29.0313 58.9228L25.043 59.1814ZM38.7105 58.3032L44.0343 57.9482C44.7562 59.5063 45.075 60.7335 45.075 60.7335C45.075 60.7335 43.9621 59.8011 41.8927 59.9394C40.4129 60.0357 39.7933 61.0643 39.7933 61.0643L38.7105 58.3032Z" fill="#2F7889"/>
<path d="M13.1998 61.8924C16.2547 60.6826 16.9513 55.207 14.7555 49.6623C12.5598 44.1177 8.30327 40.6036 5.24831 41.8134C2.19334 43.0232 1.49679 48.4987 3.69252 54.0434C5.88826 59.5881 10.1448 63.1022 13.1998 61.8924Z" fill="#B8DADE"/>
<path d="M15.9895 56.8476C14.8104 55.9573 11.6161 58.3997 11.6161 58.3997C11.207 61.2571 8.04883 60.433 8.04883 60.433C9.78734 61.9008 11.6462 62.5023 13.1982 61.8887C14.8465 61.2391 15.803 59.3321 15.9895 56.8476Z" fill="#82AEC0"/>
<path d="M48.7025 8.77723L8.04284 41.8812C6.43066 42.9881 5.66667 47.4276 7.66386 52.4687C9.66105 57.5098 13.3185 60.4334 15.2315 59.7957L67.4832 56.2225C73.156 53.9786 73.547 41.5323 68.3615 28.4303C63.176 15.3282 54.3752 6.5334 48.7025 8.77723Z" fill="#F44336"/>
<path d="M57.2501 48.4378C59.1691 51.2712 56.1011 51.3975 43.763 53.4548C40.3883 54.0203 11.6155 58.4057 11.6155 58.4057C12.3916 59.1216 13.9436 60.2345 15.267 59.8073C15.267 59.8073 66.5262 56.607 67.4887 56.228L57.2501 48.4378ZM44.148 16.6873C44.9902 16.0798 46.1994 15.1413 46.4881 13.5171C46.6385 12.6689 46.7468 11.7004 46.9453 11.2853C47.3363 10.4612 48.8342 8.57227 48.8342 8.57227L8.04828 41.8808C6.94742 42.6327 6.79102 43.89 6.79102 43.89C13.0352 39.2098 37.9399 21.181 44.148 16.6873Z" fill="#C62828"/>
<path d="M70.3506 56.6136C75.9354 54.4019 76.0232 41.3983 70.5467 27.569C65.0702 13.7398 56.1033 4.32193 50.5185 6.53356C44.9336 8.7452 44.8458 21.7489 50.3223 35.5781C55.7988 49.4073 64.7658 58.8252 70.3506 56.6136Z" fill="#B8DADE"/>
<path d="M69.9611 51.8356C73.6246 50.3848 72.9105 39.9061 68.3661 28.4306C63.8217 16.9552 57.1679 8.82862 53.5044 10.2794C49.8409 11.7302 50.555 22.2089 55.0994 33.6844C59.6438 45.1598 66.2976 53.2864 69.9611 51.8356Z" fill="#2F7889"/>
<path d="M69.9621 51.8365C73.6256 50.3867 72.9098 39.9075 68.368 28.4297L55.1035 33.6873C59.6453 45.1591 66.2986 53.2862 69.9621 51.8365Z" fill="url(#paint0_linear_183_5716)"/>
<path d="M47.9512 22.6432C47.1752 19.2264 47.2413 16.1103 47.7346 13.6739C47.873 13.0122 48.3302 12.2182 49.0099 12.2964C49.6837 12.3746 49.8822 13.0122 49.804 13.686C49.5393 15.9839 49.7438 19.1482 50.3574 22.15C50.4958 22.8177 50.4838 23.69 49.5393 24.0268C48.7212 24.3276 48.0895 23.2448 47.9512 22.6432Z" fill="white"/>
<path opacity="0.45" d="M9.0226 45.4001L42.5477 22.8295C43.5703 22.1497 44.8396 21.0248 45.0923 23.2867C45.2487 24.6943 45.4292 25.9095 45.3028 27.7383C45.2246 28.8752 42.9928 29.7535 42.295 30.1084L8.98049 47.4274C8.47517 47.68 7.53674 47.9147 7.69314 47.0063C7.8676 46.0258 8.75189 45.5806 9.0226 45.4001Z" fill="#FFCA28"/>
</g>
<defs>
<linearGradient id="paint0_linear_183_5716" x1="69.606" y1="49.965" x2="62.0516" y2="31.8345" gradientUnits="userSpaceOnUse">
<stop stop-color="#353738"/>
<stop offset="1" stop-color="#353738" stop-opacity="0"/>
</linearGradient>
<clipPath id="clip0_183_5716">
<rect width="77" height="77" fill="white"/>
</clipPath>
</defs>
</svg>
