<svg width="77" height="77" viewBox="0 0 77 77" fill="none" xmlns="http://www.w3.org/2000/svg">
<path d="M36.8945 8.02051H40.1029V65.7705H36.8945V8.02051Z" fill="#37474F"/>
<path d="M41.4144 52.5713L43.6827 54.8396L27.5769 70.9454L25.3086 68.6771L41.4144 52.5713Z" fill="#37474F"/>
<path d="M51.7491 68.6967L49.4808 70.9649L33.375 54.8591L35.6433 52.5908L51.7491 68.6967Z" fill="#37474F"/>
<path d="M6.41602 12.833H70.5827V57.7497H6.41602V12.833Z" fill="#CFD8DC"/>
<path d="M4.8125 11.2295H72.1875V17.6462H4.8125V11.2295ZM4.8125 56.1462H72.1875V59.3545H4.8125V56.1462Z" fill="#607D8B"/>
<path d="M50.5312 72.1875C51.8602 72.1875 52.9375 71.1102 52.9375 69.7812C52.9375 68.4523 51.8602 67.375 50.5312 67.375C49.2023 67.375 48.125 68.4523 48.125 69.7812C48.125 71.1102 49.2023 72.1875 50.5312 72.1875Z" fill="#607D8B"/>
<path d="M26.4688 72.1875C27.7977 72.1875 28.875 71.1102 28.875 69.7812C28.875 68.4523 27.7977 67.375 26.4688 67.375C25.1398 67.375 24.0625 68.4523 24.0625 69.7812C24.0625 71.1102 25.1398 72.1875 26.4688 72.1875Z" fill="#607D8B"/>
<path d="M51.1732 30.3184L41.7086 39.9434L32.0836 30.3184L19.0898 43.1517L22.619 46.6809L32.0836 37.0559L41.7086 46.6809L54.7023 33.8475L51.1732 30.3184Z" fill="#C51162"/>
<path d="M57.7507 38.4997L46.5215 27.2705H57.7507V38.4997Z" fill="#C51162"/>
</svg>
